<?xml version="1.0" encoding="UTF-8" standalone="no"?>
<!DOCTYPE svg PUBLIC "-//W3C//DTD SVG 1.1//EN" "http://www.w3.org/Graphics/SVG/1.1/DTD/svg11.dtd">
<svg width="100%" height="100%" viewBox="0 0 500 500" version="1.1" xmlns="http://www.w3.org/2000/svg" xmlns:xlink="http://www.w3.org/1999/xlink" xml:space="preserve" xmlns:serif="http://www.serif.com/" style="fill-rule:evenodd;clip-rule:evenodd;stroke-linejoin:round;stroke-miterlimit:2;">
    <g transform="matrix(0.790893,0,0,0.753037,-77.474907,-38.120236)">
        <path d="M694.675,308.272C677.346,346.579 650.411,383.267 607.34,427.229C539.891,496.073 462.079,554.593 376.065,601.161C373.802,602.386 371.528,603.606 369.258,604.813C330.706,573.085 296.079,537.739 267.14,500.21C208.59,424.279 176.14,343.268 175.768,272.099C175.515,223.753 183.136,184.153 199.068,151.037C218.14,111.392 249.817,82.177 285.977,70.88C297.337,67.332 309.208,65.601 321.086,65.601C346.903,65.601 372.759,73.78 393.485,89.254C413.907,104.501 428.952,126.532 436.408,150.854C432.818,154.647 429.393,158.348 426.145,161.901C419.53,169.136 410.472,179.044 408.577,191.959C407.387,200.078 410.092,208.915 415.637,215.02C420.188,220.031 426.137,222.622 432.388,222.31C448.718,221.5 456.412,203.609 456.65,187.329C456.81,176.484 455.576,165.663 453.082,155.13C470.689,136.986 491.793,117.464 514.987,102.553C546.621,82.216 576.337,74.048 605.851,77.586C628.254,80.271 649.861,90.497 668.335,107.156C685.966,123.056 699.752,144.217 707.151,166.74C721.135,209.309 716.704,259.572 694.675,308.272ZM440.412,168.542C441.319,174.681 441.743,180.891 441.652,187.109C441.532,195.305 438.348,206.996 431.646,207.329C429.912,207.415 428.262,206.609 426.741,204.935C424.214,202.153 422.879,197.813 423.418,194.135C424.553,186.401 430.338,179.545 437.215,172.022C438.262,170.877 439.328,169.716 440.412,168.542ZM607.636,62.692C574.52,58.722 541.564,67.635 506.876,89.936C485.028,103.98 465.132,121.734 448.12,138.786C439.079,114.517 423.245,92.754 402.459,77.235C368.411,51.813 322.064,43.892 281.504,56.563C241.392,69.094 206.418,101.158 185.551,144.534C168.609,179.75 160.502,221.503 160.768,272.178C161.158,346.614 194.716,430.851 255.262,509.37C283.645,546.178 317.369,580.93 354.837,612.325C275.049,653.062 190.777,682.44 103.994,699.743C99.932,700.553 97.295,704.502 98.105,708.564C98.816,712.132 101.949,714.6 105.453,714.6C105.939,714.6 106.433,714.552 106.927,714.453C197.183,696.458 284.75,665.61 367.488,622.684C406.839,654.171 449.949,681.95 495.089,704.613C498.791,706.471 503.299,704.978 505.157,701.276C507.016,697.574 505.522,693.066 501.819,691.208C459.547,669.984 419.1,644.187 381.961,615.025C382.377,614.8 382.791,614.577 383.207,614.352C470.541,567.069 549.555,507.643 618.055,437.726C647.915,407.248 685.163,365.693 708.341,314.454C731.922,262.325 736.561,208.203 721.401,162.059C703.865,108.679 658.147,68.747 607.636,62.692Z" style="fill-rule:nonzero;"/>
    </g>
</svg>
